# This file uses centimeters as units for non-parametric coordinates.

v -0.005564 -1.277266 0.161047
v -1.350424 1.052699 0.161047
v 1.350424 1.052699 0.161047
v -1.458716 1.137115 -0.161047
v 1.458716 1.137115 -0.161047
v -0.006010 -1.379692 -0.161047
v -0.892679 -0.542484 0.161047
v -0.964264 -0.585986 -0.161047
v 0.959485 -0.595651 -0.161047
v 0.888255 -0.551431 0.161047
v -0.001602 1.379692 -0.161047
v -0.001483 1.277266 0.161047
v 1.277576 0.236004 0.161047
v 1.380025 0.254930 -0.161047
v -1.380025 0.254930 -0.161047
v -1.277575 0.236004 0.161047
v -0.001158 0.036633 -0.161047
vt 0.911055 0.766526
vt 0.916718 0.770890
vt 0.840341 0.783431
vt 0.840347 0.778136
vt 0.840134 0.646072
vt 0.840111 0.640777
vt 0.890608 0.681310
vt 0.886882 0.683596
vt 0.793736 0.684059
vt 0.789992 0.681810
vt 0.768247 0.725283
vt 0.773606 0.724305
vt 0.769796 0.766526
vt 0.764132 0.770890
vt 0.907244 0.724305
vt 0.912603 0.725283
vt 0.840365 0.713998
vn 0.375353 0.290317 0.880242
vn 0.558652 0.432090 -0.707959
vn -0.000141 0.802135 -0.597142
vn -0.000103 0.586654 0.809838
vn -0.001099 -0.225839 0.974164
vn -0.003419 -0.702229 -0.711943
vn 0.610805 -0.488199 -0.623362
vn 0.614056 -0.490797 0.618105
vn -0.616711 -0.488034 0.617650
vn -0.613392 -0.485408 -0.623000
vn -0.763168 -0.215626 -0.609163
vn -0.573253 -0.161967 0.803211
vn -0.375442 0.290271 0.880219
vn -0.558794 0.432030 -0.707884
vn 0.573253 -0.161967 0.803211
vn 0.763168 -0.215626 -0.609164
vn -0.000000 0.000000 -1.000000
s 1
f 3/1/1 5/2/2 11/3/3 12/4/4
f 1/5/5 6/6/6 9/7/7 10/8/8
f 6/6/6 1/5/5 7/9/9 8/10/10
f 15/11/11 16/12/12 2/13/13 4/14/14
f 13/15/15 14/16/16 5/2/2 3/1/1
f 12/4/4 11/3/3 4/14/14 2/13/13
f 10/8/8 9/7/7 14/16/16 13/15/15
f 8/10/10 7/9/9 16/12/12 15/11/11
f 13/15/15 3/1/1 1/5/5
f 1/5/5 3/1/1 12/4/4
f 1/5/5 12/4/4 2/13/13
f 2/13/13 16/12/12 1/5/5
f 10/8/8 13/15/15 1/5/5
f 16/12/12 7/9/9 1/5/5
f 9/7/7 6/6/6 17/17/17
f 5/2/2 14/16/16 17/17/17
f 17/17/17 11/3/3 5/2/2
f 6/6/6 8/10/10 17/17/17
f 17/17/17 4/14/14 11/3/3
f 15/11/11 4/14/14 17/17/17
f 14/16/16 9/7/7 17/17/17
f 8/10/10 15/11/11 17/17/17
