# This file uses centimeters as units for non-parametric coordinates.

v -0.601464 1.103939 0.187752
v 0.000000 -1.002454 0.187752
v 0.000000 0.724943 0.187752
v -1.132593 0.932502 0.187752
v -0.630925 1.319237 -0.187752
v 0.000000 0.975050 -0.187752
v 0.000000 -1.319237 -0.187752
v -1.269427 1.122433 -0.187752
v -1.535470 0.548032 -0.187752
v -1.295700 0.517330 0.187752
v -1.058437 -0.534097 -0.187752
v -0.887336 -0.375896 0.187752
v 0.620129 1.125714 0.187752
v 1.132593 0.932502 0.187752
v 0.626009 1.317928 -0.187752
v 1.269427 1.122433 -0.187752
v 1.535470 0.548032 -0.187752
v 1.295700 0.517330 0.187752
v 1.021840 -0.567322 -0.187752
v 0.853551 -0.405614 0.187752
vt 0.840467 0.500703
vt 0.840467 0.513213
vt 0.805902 0.530430
vt 0.807516 0.519661
vt 0.782481 0.437725
vt 0.840467 0.398451
vt 0.840467 0.414297
vt 0.791855 0.445638
vt 0.770922 0.520586
vt 0.778418 0.511085
vt 0.769483 0.490318
vt 0.756347 0.491854
vt 0.874441 0.520750
vt 0.874763 0.530365
vt 0.896449 0.436063
vt 0.887229 0.444151
vt 0.902517 0.511085
vt 0.910013 0.520586
vt 0.911452 0.490318
vt 0.924588 0.491854
vn -0.000887 0.169786 0.985481
vn -0.001104 0.211408 -0.977397
vn 0.118731 0.992614 -0.024909
vn 0.075187 0.628573 0.774108
vn -0.672929 -0.541619 -0.503801
vn -0.002053 -0.830304 -0.557307
vn -0.000998 -0.403553 0.914956
vn -0.372183 -0.299558 0.878490
vn -0.565621 0.627319 -0.535298
vn -0.311004 0.344928 0.885608
vn -0.468531 -0.003222 0.883441
vn -0.844743 -0.005810 -0.535140
vn -0.070871 0.637610 0.767093
vn -0.110353 0.992819 -0.046175
vn 0.667465 -0.548820 -0.503276
vn 0.369562 -0.303871 0.878115
vn 0.318277 0.348729 0.881526
vn 0.567346 0.621629 -0.540088
vn 0.467515 -0.007341 0.883955
vn 0.843451 -0.013245 -0.537043
s 1
f 3/1/1 6/2/2 5/3/3 1/4/4
f 11/5/5 7/6/6 2/7/7 12/8/8
f 5/3/3 8/9/9 4/10/10 1/4/4
f 10/11/11 9/12/12 11/5/5 12/8/8
f 4/10/10 8/9/9 9/12/12 10/11/11
f 2/7/7 3/1/1 12/8/8
f 3/1/1 10/11/11 12/8/8
f 10/11/11 3/1/1 4/10/10
f 4/10/10 3/1/1 1/4/4
f 3/1/1 13/13/13 15/14/14 6/2/2
f 19/15/15 20/16/16 2/7/7 7/6/6
f 15/14/14 13/13/13 14/17/17 16/18/18
f 14/17/17 18/19/19 17/20/20 16/18/18
f 20/16/16 19/15/15 17/20/20 18/19/19
f 2/7/7 20/16/16 3/1/1
f 3/1/1 20/16/16 18/19/19
f 18/19/19 14/17/17 3/1/1
f 14/17/17 13/13/13 3/1/1
f 7/6/6 11/5/5 6/2/2
f 9/12/12 8/9/9 6/2/2
f 8/9/9 5/3/3 6/2/2
f 6/2/2 11/5/5 9/12/12
f 19/15/15 7/6/6 6/2/2
f 16/18/18 17/20/20 6/2/2
f 15/14/14 16/18/18 6/2/2
f 6/2/2 17/20/20 19/15/15
