# This file uses centimeters as units for non-parametric coordinates.

v 7.179774 -7.213237 -0.682644
v -7.179772 -7.213236 -0.682644
v 7.937159 11.079840 -0.682644
v -7.937159 11.079837 -0.682644
v 0.000001 -7.213236 -0.682644
v 3.589887 12.805430 -0.682644
v -3.589887 12.805429 -0.682644
vt 0.693444 0.989743
vt 0.880557 0.020241
vt 0.920033 0.906173
vt 0.319218 0.989743
vt 0.506331 0.020241
vt 0.132106 0.020241
vt 0.092629 0.906172
vn 0.000000 -0.000000 1.000000
vn -0.000000 -0.000000 1.000000
vn -0.000000 -0.000000 1.000000
vn 0.000000 -0.000000 1.000000
vn 0.000000 -0.000000 1.000000
vn 0.000000 -0.000000 1.000000
vn 0.000000 -0.000000 1.000000
s 1
f 6/1/1 1/2/2 3/3/3
f 6/1/1 7/4/4 5/5/5
f 2/6/6 7/4/4 4/7/7
f 7/4/4 2/6/6 5/5/5
f 1/2/2 6/1/1 5/5/5
